<svg width="201" height="140" viewBox="0 0 201 140" fill="none" xmlns="http://www.w3.org/2000/svg">
<path d="M139.333 77.4783H132.667C132.49 77.4783 132.32 77.5493 132.195 77.6756C132.07 77.802 132 77.9734 132 78.1522V94.3261C132 94.5048 132.07 94.6762 132.195 94.8026C132.32 94.929 132.49 95 132.667 95H139.333C139.51 95 139.68 94.929 139.805 94.8026C139.93 94.6762 140 94.5048 140 94.3261V78.1522C140 77.9734 139.93 77.802 139.805 77.6756C139.68 77.5493 139.51 77.4783 139.333 77.4783ZM163 78.1522C163 76.2949 161.504 74.7826 159.667 74.7826H151.273C151.68 73.5305 152.333 71.2351 152.333 69.3913C152.333 66.4679 149.876 64 148.333 64C146.948 64 145.959 64.7871 145.916 64.8208C145.838 64.8844 145.776 64.9647 145.732 65.0558C145.689 65.147 145.667 65.2468 145.667 65.3478C145.667 65.3478 145.833 67.8339 145.667 69.917C145.5 72 142 77 142 77L140.703 78.8962C140.592 78.9525 140.499 79.0387 140.434 79.1453C140.368 79.2519 140.334 79.3747 140.333 79.5V91.6304C140.333 91.8097 140.404 91.9809 140.528 92.1076C141.527 93.1157 143.767 93.6522 145 93.6522H157.333C157.844 93.6513 158.345 93.519 158.791 93.2678C159.236 93.0166 159.611 92.6547 159.88 92.2163C160.149 91.7779 160.303 91.2775 160.328 90.7623C160.352 90.2471 160.246 89.7341 160.02 89.2717C160.726 88.9132 161.263 88.2863 161.513 87.5285C161.763 86.7706 161.706 85.9434 161.353 85.2283C161.848 84.9773 162.264 84.5923 162.555 84.1163C162.845 83.6403 163 83.092 163 82.5326C163 81.7239 162.681 80.9678 162.133 80.4098C162.687 79.8006 163 79.0027 163 78.1522Z" stroke="white" stroke-width="2"/>
<path d="M84.5 82.978C79.5249 83.6463 74.3353 84 69 84C62.8128 84 56.8215 83.5243 51.1336 82.634C50.9059 82.5983 50.6729 82.6415 50.4736 82.7573L10.8573 105.76C9.93417 106.296 8.92596 105.207 9.53192 104.328L28.0943 77.4058C28.4533 76.8852 28.2428 76.1657 27.6651 75.9085C12.0387 68.9517 2 58.1408 2 46C2 25.0132 31.9969 8 69 8C102.71 8 130.605 22.1195 135.303 40.5" stroke="white" stroke-width="4" stroke-linecap="round"/>
<path d="M145 113C129.846 113 116.222 109.212 106.451 103.192C96.6485 97.1533 91 89.0745 91 80.5C91 71.9255 96.6485 63.8467 106.451 57.8076C116.222 51.7883 129.846 48 145 48C160.154 48 173.778 51.7883 183.549 57.8076C193.351 63.8467 199 71.9255 199 80.5C199 89.0402 193.397 97.0882 183.666 103.12C182.271 103.985 181.792 105.841 182.691 107.279L192.815 123.478L165.479 111.197C164.884 110.929 164.223 110.865 163.594 111.005C157.8 112.295 151.538 113 145 113Z" stroke="white" stroke-width="4"/>
<rect x="39" y="28" width="44" height="3" fill="white"/>
<rect x="22" y="39" width="53" height="3" fill="white"/>
<rect x="81" y="39" width="21" height="3" fill="white"/>
<rect x="28" y="50" width="21" height="3" fill="white"/>
<rect x="57" y="61" width="21" height="3" fill="white"/>
<rect x="57" y="50" width="41" height="3" fill="white"/>
</svg>
