<svg width="203" height="140" viewBox="0 0 203 140" fill="none" xmlns="http://www.w3.org/2000/svg">
<rect x="121.5" y="14.5" width="79" height="112" rx="2.6522" stroke="white" stroke-width="5"/>
<rect width="2.13266" height="11.9142" transform="matrix(0.853052 0.521826 -0.478487 0.878095 162.841 38)" fill="white"/>
<rect width="2.13266" height="6.09566" transform="matrix(0.853052 0.521826 -0.478487 0.878095 170.823 42.1738)" fill="white"/>
<rect width="2.16413" height="6.00951" transform="matrix(-0.686384 0.72724 -0.686384 -0.72724 172.62 43.2051)" fill="white"/>
<rect width="2.13266" height="6.09566" transform="matrix(-0.853052 -0.521826 0.478487 -0.878095 150.819 45.3003)" fill="white"/>
<rect width="2.16413" height="6.00951" transform="matrix(0.686384 -0.72724 0.686384 0.72724 149.093 44.2686)" fill="white"/>
<rect x="2.5" y="14.5" width="79" height="112" rx="2.6522" stroke="white" stroke-width="5"/>
<rect width="2.13266" height="11.9142" transform="matrix(0.853052 0.521826 -0.478487 0.878095 43.7219 37)" fill="white"/>
<rect width="2.13266" height="6.09566" transform="matrix(0.853052 0.521826 -0.478487 0.878095 51.7039 41.1738)" fill="white"/>
<rect width="2.16413" height="6.00951" transform="matrix(-0.686384 0.72724 -0.686384 -0.72724 53.501 42.2051)" fill="white"/>
<rect width="2.13266" height="6.09566" transform="matrix(-0.853052 -0.521826 0.478487 -0.878095 31.7002 44.3003)" fill="white"/>
<rect width="2.16413" height="6.00951" transform="matrix(0.686384 -0.72724 0.686384 0.72724 29.9734 43.2686)" fill="white"/>
<rect x="88" y="69" width="19" height="7" rx="1" fill="white"/>
<path d="M113.858 71.6858C114.418 72.0846 114.418 72.9154 113.858 73.3142L103.831 80.4659C103.169 80.938 102.25 80.4648 102.25 79.6518L102.25 65.3482C102.25 64.5352 103.169 64.062 103.831 64.534L113.858 71.6858Z" fill="white"/>
<path d="M41.3386 109.2C40.7883 109.545 40.6219 110.271 40.9669 110.821C41.3119 111.372 42.0377 111.538 42.588 111.193L41.3386 109.2ZM43.9757 99.0388C44.5778 100.176 45.3141 101.845 45.226 103.636C45.1429 105.327 44.3136 107.335 41.3386 109.2L42.588 111.193C46.1296 108.973 47.4497 106.305 47.5752 103.752C47.6957 101.299 46.6996 99.157 46.0544 97.9383L43.9757 99.0388Z" fill="white"/>
<path d="M17.5065 85.2559C17.1615 85.8061 16.4357 85.9726 15.8854 85.6276C15.3351 85.2826 15.1687 84.5568 15.5137 84.0065L17.5065 85.2559ZM27.668 82.6188C26.5307 82.0167 24.8616 81.2804 23.0705 81.3685C21.38 81.4515 19.3716 82.2809 17.5065 85.2559L15.5137 84.0065C17.7341 80.4649 20.4018 79.1448 22.955 79.0193C25.4076 78.8987 27.5498 79.8949 28.7685 80.5401L27.668 82.6188Z" fill="white"/>
<path d="M41.6443 60.5638C42.1946 60.2188 42.361 59.4931 42.016 58.9428C41.671 58.3925 40.9452 58.2261 40.3949 58.5711L41.6443 60.5638ZM39.0072 70.7254C38.4051 69.5881 37.6688 67.919 37.7569 66.1278C37.84 64.4373 38.6693 62.429 41.6443 60.5638L40.3949 58.5711C36.8534 60.7915 35.5332 63.4592 35.4077 66.0124C35.2872 68.4649 36.2833 70.6071 36.9285 71.8259L39.0072 70.7254Z" fill="white"/>
<path d="M65.2897 84.7637C65.6347 84.2134 66.3604 84.047 66.9107 84.392C67.461 84.737 67.6274 85.4627 67.2824 86.013L65.2897 84.7637ZM55.1281 87.4008C56.2654 88.0029 57.9345 88.7391 59.7257 88.6511C61.4162 88.568 63.4245 87.7386 65.2897 84.7637L67.2824 86.013C65.062 89.5546 62.3943 90.8748 59.8411 91.0002C57.3886 91.1208 55.2464 90.1246 54.0276 89.4794L55.1281 87.4008Z" fill="white"/>
<rect x="45.7078" y="64.8101" width="22.736" height="34.888" rx="11.368" transform="rotate(45 45.7078 64.8101)" stroke="white" stroke-width="2.352"/>
<rect x="40.1641" y="69.7998" width="23.52" height="2.352" transform="rotate(45 40.1641 69.7998)" fill="white"/>
<rect x="55.4094" y="77.2837" width="7.056" height="2.352" rx="1.176" transform="rotate(-45 55.4094 77.2837)" fill="white"/>
<rect x="54.855" y="100.013" width="9.408" height="2.352" rx="1.176" transform="rotate(-135 54.855 100.013)" fill="white"/>
<rect x="33.2346" y="78.3921" width="9.408" height="2.352" rx="1.176" transform="rotate(-135 33.2346 78.3921)" fill="white"/>
<rect x="47.6482" y="69.5225" width="7.056" height="2.352" rx="1.176" transform="rotate(-45 47.6482 69.5225)" fill="white"/>
<rect x="27.968" y="96.9639" width="26.656" height="2.352" transform="rotate(-45 27.968 96.9639)" fill="white"/>
<rect x="4" y="26" width="77" height="2" fill="white"/>
<rect x="122" y="27" width="77" height="2" fill="white"/>
<circle cx="72.5" cy="21.5" r="2.5" fill="white"/>
<circle cx="192.5" cy="21.5" r="2.5" fill="white"/>
<circle cx="64.5" cy="21.5" r="2.5" fill="white"/>
<circle cx="184.5" cy="21.5" r="2.5" fill="white"/>
<path fill-rule="evenodd" clip-rule="evenodd" d="M143.5 104.727C140.613 104.727 138.273 102.386 138.273 99.5C138.273 96.6135 140.613 94.2727 143.5 94.2727C146.386 94.2727 148.727 96.6135 148.727 99.5C148.727 102.386 146.386 104.727 143.5 104.727ZM154.434 98.0583L152.277 97.2904C152.006 97.1942 151.707 96.8932 151.613 96.6213L151.272 95.7954C151.147 95.5362 151.146 95.1117 151.27 94.8519L152.25 92.7903C152.373 92.5305 152.317 92.1431 152.126 91.9288L151.071 90.8745C150.857 90.6826 150.47 90.6267 150.21 90.7501L148.148 91.7302C147.888 91.8535 147.464 91.8525 147.205 91.7281L146.379 91.3873C146.107 91.2932 145.806 90.9942 145.71 90.7234L144.942 88.5656C144.845 88.2948 144.532 88.0528 144.246 88.0277C144.246 88.0277 143.928 88 143.5 88C143.072 88 142.754 88.0277 142.754 88.0277C142.468 88.0528 142.154 88.2948 142.058 88.5656L141.29 90.7234C141.194 90.9942 140.893 91.2932 140.621 91.3878L139.797 91.7281C139.538 91.8525 139.113 91.8535 138.853 91.7302L136.79 90.7501C136.53 90.6267 136.143 90.6826 135.929 90.8745L134.874 91.9288C134.683 92.1431 134.627 92.5305 134.75 92.7903L135.73 94.8519C135.854 95.1117 135.853 95.5362 135.728 95.7954L135.387 96.6213C135.293 96.8932 134.994 97.1942 134.723 97.2904L132.566 98.0583C132.295 98.1545 132.053 98.4676 132.028 98.7541C132.028 98.7541 132 99.0719 132 99.5C132 99.9281 132.028 100.245 132.028 100.245C132.053 100.532 132.295 100.845 132.566 100.942L134.724 101.71C134.995 101.806 135.294 102.107 135.389 102.379L135.73 103.205C135.854 103.464 135.855 103.888 135.732 104.148L134.752 106.21C134.628 106.47 134.684 106.857 134.876 107.071L135.93 108.126C136.145 108.317 136.532 108.373 136.792 108.25L138.853 107.27C139.113 107.146 139.538 107.147 139.797 107.272L140.623 107.613C140.894 107.707 141.195 108.006 141.292 108.277L142.06 110.435C142.156 110.706 142.469 110.948 142.756 110.973C142.756 110.973 143.072 111 143.5 111C143.928 111 144.246 110.972 144.246 110.972C144.532 110.947 144.845 110.705 144.942 110.434L145.71 108.276C145.806 108.005 146.107 107.706 146.379 107.611L147.205 107.27C147.464 107.146 147.888 107.145 148.148 107.268L150.21 108.248C150.47 108.372 150.857 108.316 151.071 108.124L152.126 107.07C152.317 106.855 152.373 106.468 152.25 106.208L151.27 104.147C151.146 103.887 151.147 103.462 151.272 103.204L151.613 102.377C151.707 102.106 152.006 101.805 152.277 101.708L154.435 100.94C154.706 100.844 154.948 100.531 154.973 100.244C154.973 100.244 155 99.9281 155 99.5C155 99.0719 154.972 98.7541 154.972 98.7541C154.947 98.4676 154.705 98.1545 154.434 98.0583Z" fill="white"/>
<path fill-rule="evenodd" clip-rule="evenodd" d="M170.5 90.3636C165.605 90.3636 161.636 86.3945 161.636 81.5C161.636 76.6055 165.605 72.6364 170.5 72.6364C175.394 72.6364 179.364 76.6055 179.364 81.5C179.364 86.3945 175.394 90.3636 170.5 90.3636ZM189.041 79.0554L185.382 77.7533C184.923 77.5903 184.417 77.0797 184.256 76.6188L183.678 75.2183C183.467 74.7787 183.466 74.059 183.675 73.6185L185.337 70.1226C185.546 69.6821 185.451 69.0253 185.126 68.6619L183.338 66.8741C182.975 66.5488 182.318 66.454 181.877 66.6632L178.382 68.3251C177.941 68.5343 177.221 68.5325 176.782 68.3215L175.381 67.7436C174.92 67.5841 174.41 67.0771 174.247 66.618L172.945 62.959C172.781 62.4999 172.25 62.0895 171.765 62.047C171.765 62.047 171.226 62 170.5 62C169.774 62 169.235 62.047 169.235 62.047C168.749 62.0895 168.219 62.4999 168.055 62.959L166.753 66.618C166.59 67.0771 166.08 67.5841 165.619 67.7445L164.221 68.3215C163.781 68.5325 163.062 68.5343 162.621 68.3251L159.123 66.6632C158.682 66.454 158.025 66.5488 157.662 66.8741L155.874 68.6619C155.549 69.0253 155.454 69.6821 155.663 70.1226L157.325 73.6185C157.534 74.059 157.533 74.7787 157.322 75.2183L156.744 76.6188C156.584 77.0797 156.077 77.5903 155.618 77.7533L151.959 79.0554C151.5 79.2185 151.09 79.7494 151.047 80.2352C151.047 80.2352 151 80.7741 151 81.5C151 82.2259 151.047 82.764 151.047 82.764C151.09 83.2497 151.5 83.7806 151.959 83.9446L155.62 85.2467C156.079 85.4098 156.586 85.9203 156.746 86.3812L157.324 87.7817C157.535 88.2213 157.537 88.941 157.328 89.3815L155.666 92.8774C155.457 93.3179 155.551 93.9747 155.877 94.3381L157.665 96.1259C158.028 96.4512 158.685 96.546 159.125 96.3368L162.621 94.6749C163.062 94.4657 163.781 94.4675 164.221 94.6785L165.621 95.2564C166.081 95.4159 166.592 95.9229 166.756 96.382L168.058 100.043C168.221 100.502 168.752 100.912 169.238 100.954C169.238 100.954 169.774 101 170.5 101C171.226 101 171.765 100.953 171.765 100.953C172.25 100.91 172.781 100.5 172.945 100.041L174.247 96.3803C174.41 95.9211 174.92 95.4141 175.381 95.2537L176.782 94.6758C177.221 94.4648 177.941 94.4631 178.382 94.6722L181.877 96.3342C182.318 96.5434 182.975 96.4485 183.338 96.1232L185.126 94.3354C185.451 93.972 185.546 93.3152 185.337 92.8747L183.675 89.3789C183.466 88.9384 183.467 88.2186 183.678 87.7799L184.256 86.3785C184.416 85.9185 184.923 85.408 185.382 85.244L189.043 83.9419C189.502 83.7788 189.912 83.2479 189.954 82.7622C189.954 82.7622 190 82.2259 190 81.5C190 80.7741 189.953 80.2352 189.953 80.2352C189.91 79.7494 189.5 79.2185 189.041 79.0554Z" stroke="white" stroke-width="2"/>
</svg>
