<svg width="148" height="128" viewBox="0 0 148 128" fill="none" xmlns="http://www.w3.org/2000/svg">
<rect x="69.6902" y="97.5557" width="36.5922" height="9.88682" rx="4.94341" transform="rotate(-15 69.6902 97.5557)" stroke="white" stroke-width="4"/>
<rect x="72.7314" y="108.906" width="36.5922" height="9.88682" rx="4.94341" transform="rotate(-15 72.7314 108.906)" stroke="white" stroke-width="4"/>
<path fill-rule="evenodd" clip-rule="evenodd" d="M99.0611 79.6679L100.512 78.4804C112.297 68.8345 117.997 52.8592 113.806 37.2166C108.098 15.9135 86.2008 3.27132 64.8978 8.97946C43.5947 14.6876 30.9525 36.5845 36.6606 57.8876C40.8266 73.4354 53.6192 84.3818 68.5326 86.9305L70.3521 87.2415L71.6821 88.5213C73.4338 90.2069 74.8526 92.1954 76.0087 94.2024L76.3558 94.805L72.6762 95.7909C71.8961 96 71.1883 96.3443 70.5714 96.7919C69.6671 95.283 68.6542 93.9344 67.5218 92.8448C50.3845 89.916 35.6598 77.3345 30.8651 59.4405C24.2993 34.9366 38.841 9.7497 63.3448 3.1839C87.8487 -3.38189 113.036 11.1598 119.601 35.6637C124.33 53.3092 118.112 71.3089 105.111 82.4542C105.006 82.5447 104.9 82.6348 104.793 82.7244C104.634 82.8585 104.473 82.9915 104.312 83.1235C104.295 83.1841 104.277 83.2447 104.26 83.3053C104.243 83.3604 104.227 83.4155 104.211 83.4706C103.808 84.824 103.613 86.2985 103.577 87.8392C102.917 87.8031 102.24 87.8693 101.567 88.0496L97.5672 89.1214L97.5715 88.2273C97.5816 86.1182 97.8206 83.9101 98.4596 81.7607C98.4734 81.7145 98.4869 81.6685 98.5003 81.6227C98.5152 81.5718 98.5299 81.521 98.5444 81.4703L99.0611 79.6679ZM74.2292 101.586L75.1517 101.339L75.0791 101.413C75.0391 101.453 75.0066 101.503 74.985 101.557C75.1044 101.631 75.2612 101.724 75.4689 101.843C75.5692 101.9 75.6715 101.958 75.7804 102.018L74.441 102.377C74.2227 102.436 73.9982 102.306 73.9397 102.088C73.8812 101.869 74.0108 101.645 74.2292 101.586ZM78.8027 112.526L77.2704 112.936C77.052 112.995 76.9225 113.219 76.981 113.438C77.0395 113.656 77.2639 113.786 77.4823 113.727L83.6412 112.077L78.6718 113.408L78.5141 113.451C78.4405 113.47 78.3662 113.469 78.2978 113.45L78.3591 113.338C78.4187 113.23 78.4873 113.105 78.5668 112.96C78.6411 112.825 78.7201 112.68 78.8027 112.526ZM100.214 107.636L106.373 105.986C106.592 105.927 106.721 105.703 106.663 105.485C106.604 105.266 106.38 105.137 106.161 105.195L105.316 105.422C105.324 105.427 105.333 105.432 105.341 105.438C105.449 105.507 105.529 105.562 105.585 105.603C105.598 105.645 105.614 105.697 105.631 105.761C105.689 105.979 105.56 106.204 105.341 106.262L105.184 106.305L100.214 107.636ZM100.817 113.686L106.736 112.1C107.466 118.795 103.228 125.205 96.5218 127.002C89.8155 128.799 82.9398 125.366 80.2247 119.204L86.1439 117.618C87.9002 120.581 91.4795 122.142 94.9689 121.207C98.4584 120.272 100.778 117.13 100.817 113.686ZM102.5 94.8361L102.487 94.8624L103.332 94.6359C103.55 94.5774 103.68 94.353 103.621 94.1346C103.563 93.9163 103.338 93.7867 103.12 93.8452L102.188 94.095L102.278 94.1149C102.35 94.1308 102.422 94.1686 102.479 94.2221C102.529 94.2686 102.567 94.3257 102.59 94.4111C102.607 94.4753 102.619 94.5283 102.629 94.5712C102.601 94.6345 102.559 94.7215 102.5 94.8361Z" fill="white"/>
<rect x="79.2521" y="70.8051" width="4.27287" height="24.569" transform="rotate(-15 79.2521 70.8051)" fill="white"/>
<path d="M83.9323 71.7628C76.5242 73.7478 69.5284 71.6612 68.3069 67.1024C66.0951 58.8478 77.7756 55.7181 85.1837 53.7331" stroke="white" stroke-width="4"/>
<path d="M62.2886 40.5146L60.3114 40.8157L62.2886 40.5146ZM71.5297 29.6029C72.5967 29.317 73.2298 28.2204 72.9439 27.1534C72.6581 26.0865 71.5614 25.4533 70.4944 25.7392L71.5297 29.6029ZM84.002 43.132C82.1978 43.6154 79.7081 44.4548 77.6388 45.0506C75.3964 45.6962 73.2131 46.1994 71.2595 46.2878C69.3047 46.3762 67.8048 46.0389 66.7209 45.2405C65.6734 44.4688 64.6946 43.0287 64.2658 40.2134L60.3114 40.8157C60.8476 44.3366 62.2042 46.8815 64.3485 48.461C66.4563 50.0137 69.0045 50.3939 71.4402 50.2837C73.8771 50.1735 76.4266 49.562 78.7455 48.8944C81.2375 48.177 83.1374 47.5048 85.0373 46.9957L84.002 43.132ZM64.2658 40.2134C63.9591 38.1996 64.2458 35.9517 65.3374 34.0334C66.4042 32.1589 68.3128 30.4649 71.5297 29.6029L70.4944 25.7392C66.3033 26.8623 63.486 29.1993 61.8609 32.055C60.2608 34.8668 59.8899 38.0481 60.3114 40.8157L64.2658 40.2134Z" fill="white"/>
<path d="M84.185 45.1535C87.789 44.1878 91.2057 45.2528 91.8164 47.5322C93.0606 52.1754 87.2399 53.1821 83.636 54.1478" stroke="white" stroke-width="4"/>
<rect x="137.093" y="1" width="6" height="20.6993" rx="3" transform="rotate(51.03 137.093 1)" fill="white"/>
<rect y="26.7955" width="6" height="24.8944" rx="3" transform="rotate(-75 0 26.7955)" fill="white"/>
<rect x="16.9707" y="12.8197" width="6" height="13.8992" rx="3" transform="rotate(-60 16.9707 12.8197)" fill="white"/>
<rect x="11.5822" y="81.7693" width="6" height="13.8992" rx="3" transform="rotate(-105 11.5822 81.7693)" fill="white"/>
<rect x="146.121" y="31" width="6" height="16.6895" rx="3" transform="rotate(75 146.121 31)" fill="white"/>
</svg>
