<svg width="129" height="128" viewBox="0 0 129 128" fill="none" xmlns="http://www.w3.org/2000/svg">
<mask id="path-1-inside-1_355_516" fill="white">
<path fill-rule="evenodd" clip-rule="evenodd" d="M67.2491 96.1533C78.715 95.8913 90.3079 88.9262 101.129 78.105C127.569 51.6654 130.316 5.65358 126.539 1.8765C122.762 -1.90059 76.0357 -1.92795 50.3101 27.2859C40.0885 38.8935 32.9643 50.4995 32.619 61.8734C32.3582 62.001 32.1023 62.1439 31.8524 62.3022L25.1036 66.5764C20.7739 69.3186 20.1032 75.3679 23.7272 78.9918L49.9062 105.171C53.485 108.75 59.4459 108.148 62.2368 103.925L66.6235 97.2892C66.8655 96.9231 67.0739 96.5431 67.2491 96.1533Z"/>
</mask>
<path d="M67.2491 96.1533L67.1121 90.1549L63.328 90.2414L61.7764 93.6937L67.2491 96.1533ZM50.3101 27.2859L54.813 31.2512L50.3101 27.2859ZM32.619 61.8734L35.2574 67.2621L38.5064 65.6713L38.6162 62.0554L32.619 61.8734ZM31.8524 62.3022L35.0627 67.3711L35.0627 67.3711L31.8524 62.3022ZM25.1036 66.5764L28.3139 71.6453L28.3139 71.6453L25.1036 66.5764ZM62.2368 103.925L67.2421 107.234L67.2421 107.234L62.2368 103.925ZM66.6235 97.2892L61.6182 93.9806L61.6182 93.9806L66.6235 97.2892ZM96.8865 73.8624C86.4818 84.2671 76.2895 89.9452 67.1121 90.1549L67.3862 102.152C81.1405 101.837 94.134 93.5854 105.372 82.3476L96.8865 73.8624ZM122.296 6.11914C121.537 5.35977 121.386 4.69255 121.466 4.93639C121.499 5.03705 121.586 5.36257 121.674 5.98644C121.847 7.22109 121.946 9.07691 121.882 11.5035C121.754 16.3245 120.997 22.8577 119.318 30.1455C115.939 44.8181 109.018 61.7311 96.8865 73.8624L105.372 82.3476C119.68 68.0393 127.353 48.7266 131.012 32.8391C132.853 24.8469 133.727 17.5164 133.878 11.8217C133.953 8.99038 133.853 6.42529 133.557 4.31743C133.41 3.27006 133.196 2.19392 132.867 1.1927C132.585 0.334668 132.013 -1.13464 130.781 -2.36615L122.296 6.11914ZM54.813 31.2512C66.5078 17.9707 83.2265 11.1082 97.8681 8.0857C105.143 6.58394 111.706 6.07378 116.565 6.14442C119.008 6.17994 120.897 6.36063 122.167 6.59008C122.809 6.70593 123.168 6.81224 123.307 6.86251C123.589 6.9641 122.998 6.82068 122.296 6.11914L130.781 -2.36615C129.608 -3.53983 128.209 -4.12609 127.379 -4.4256C126.406 -4.77643 125.349 -5.02948 124.301 -5.2188C122.192 -5.59968 119.61 -5.81257 116.739 -5.85431C110.971 -5.93816 103.537 -5.3375 95.442 -3.6665C79.345 -0.343516 59.838 7.38731 45.8071 23.3207L54.813 31.2512ZM38.6162 62.0554C38.8939 52.9079 44.7538 42.6745 54.813 31.2512L45.8071 23.3207C35.4233 35.1125 27.0346 48.0911 26.6217 61.6913L38.6162 62.0554ZM35.0627 67.3711C35.1273 67.3302 35.1923 67.294 35.2574 67.2621L29.9805 56.4846C29.5241 56.7081 29.0773 56.9577 28.6421 57.2333L35.0627 67.3711ZM28.3139 71.6453L35.0627 67.3711L28.6421 57.2333L21.8933 61.5075L28.3139 71.6453ZM27.9698 74.7492C27.0638 73.8432 27.2315 72.3309 28.3139 71.6453L21.8933 61.5075C14.3162 66.3063 13.1426 76.8925 19.4845 83.2345L27.9698 74.7492ZM54.1488 100.928L27.9698 74.7492L19.4845 83.2345L45.6636 109.413L54.1488 100.928ZM57.2315 100.617C56.5338 101.672 55.0435 101.823 54.1488 100.928L45.6636 109.413C51.9265 115.676 62.3581 114.623 67.2421 107.234L57.2315 100.617ZM61.6182 93.9806L57.2315 100.617L67.2421 107.234L71.6288 100.598L61.6182 93.9806ZM61.7764 93.6937C61.7331 93.79 61.6808 93.8859 61.6182 93.9806L71.6288 100.598C72.0503 99.9602 72.4147 99.2962 72.7218 98.613L61.7764 93.6937Z" fill="white" mask="url(#path-1-inside-1_355_516)"/>
<mask id="path-3-inside-2_355_516" fill="white">
<path fill-rule="evenodd" clip-rule="evenodd" d="M100.477 78.751C100.695 78.5371 100.912 78.3217 101.129 78.1047C127.568 51.6651 130.315 5.65328 126.538 1.87619C122.761 -1.9009 76.0354 -1.92825 50.3098 27.2856C49.8874 27.7653 49.4704 28.2449 49.0588 28.7245C43.014 27.8575 37.1152 27.6278 32.724 28.7866C26.8982 30.324 21.657 32.2365 17.5089 33.9533C12.5969 35.9863 11.6499 42.1918 15.409 45.9508L31.7957 62.3376L25.1033 66.5761C20.7736 69.3183 20.1029 75.3676 23.7269 78.9915L49.9059 105.171C53.4847 108.749 59.4456 108.147 62.2365 103.925L66.6232 97.2889C66.6397 97.264 66.656 97.239 66.6721 97.214L83.5008 114.043C87.2599 117.802 93.4653 116.855 95.4983 111.943C97.2151 107.795 99.1276 102.553 100.665 96.7276C101.929 91.9394 101.541 85.3589 100.477 78.751Z"/>
</mask>
<path d="M100.477 78.751L96.2712 74.4718L94.0604 76.6447L94.5533 79.7051L100.477 78.751ZM50.3098 27.2856L45.8068 23.3204L45.8068 23.3204L50.3098 27.2856ZM49.0588 28.7245L48.207 34.6637L51.4675 35.1314L53.6124 32.6316L49.0588 28.7245ZM32.724 28.7866L31.1931 22.9852L31.193 22.9852L32.724 28.7866ZM17.5089 33.9533L19.8035 39.4972L19.8035 39.4972L17.5089 33.9533ZM31.7957 62.3376L35.0061 67.4065L41.339 63.3956L36.0384 58.095L31.7957 62.3376ZM25.1033 66.5761L28.3136 71.645L28.3136 71.645L25.1033 66.5761ZM62.2365 103.925L67.2418 107.234L67.2418 107.234L62.2365 103.925ZM66.6232 97.2889L61.6181 93.98L61.6179 93.9803L66.6232 97.2889ZM66.6721 97.214L70.9148 92.9714L65.6596 87.7161L61.6304 93.9612L66.6721 97.214ZM95.4983 111.943L101.042 114.237L101.042 114.237L95.4983 111.943ZM100.665 96.7276L106.466 98.2586L106.466 98.2586L100.665 96.7276ZM96.8862 73.8621C96.6814 74.0669 96.4764 74.2702 96.2712 74.4718L104.683 83.0302C104.913 82.8041 105.142 82.5765 105.371 82.3473L96.8862 73.8621ZM122.296 6.11883C121.536 5.35946 121.385 4.69225 121.465 4.93609C121.498 5.03674 121.586 5.36226 121.674 5.98614C121.847 7.22079 121.946 9.07661 121.882 11.5032C121.754 16.3242 120.997 22.8574 119.318 30.1452C115.938 44.8178 109.017 61.7308 96.8862 73.8621L105.371 82.3473C119.68 68.039 127.352 48.7263 131.012 32.8388C132.853 24.8466 133.726 17.5161 133.878 11.8214C133.953 8.99008 133.853 6.42499 133.557 4.31713C133.41 3.26976 133.195 2.19362 132.866 1.1924C132.585 0.334365 132.013 -1.13494 130.781 -2.36645L122.296 6.11883ZM54.8127 31.2509C66.5075 17.9704 83.2262 11.1079 97.8678 8.0854C105.143 6.58364 111.705 6.07348 116.565 6.14412C119.007 6.17963 120.897 6.36033 122.167 6.58978C122.808 6.70563 123.167 6.81194 123.307 6.86221C123.588 6.9638 122.997 6.82038 122.296 6.11883L130.781 -2.36645C129.607 -3.54013 128.209 -4.12639 127.378 -4.4259C126.406 -4.77673 125.348 -5.02978 124.3 -5.2191C122.192 -5.59998 119.61 -5.81287 116.739 -5.85461C110.971 -5.93847 103.536 -5.3378 95.4417 -3.6668C79.3447 -0.343818 59.8377 7.387 45.8068 23.3204L54.8127 31.2509ZM53.6124 32.6316C54.0066 32.1722 54.4068 31.7119 54.8127 31.2509L45.8068 23.3204C45.3681 23.8186 44.9341 24.3176 44.5053 24.8174L53.6124 32.6316ZM34.2549 34.588C37.4369 33.7483 42.3453 33.823 48.207 34.6637L49.9107 22.7853C43.6827 21.892 36.7936 21.5073 31.1931 22.9852L34.2549 34.588ZM19.8035 39.4972C23.7655 37.8574 28.7472 36.0414 34.2549 34.588L31.193 22.9852C25.0493 24.6065 19.5485 26.6156 15.2144 28.4094L19.8035 39.4972ZM19.6516 41.7082C19.1558 41.2124 19.0613 40.6757 19.125 40.2953C19.1572 40.1024 19.229 39.9525 19.3153 39.8415C19.3931 39.7415 19.53 39.6104 19.8035 39.4972L15.2144 28.4094C5.94706 32.245 4.69832 43.7255 11.1664 50.1935L19.6516 41.7082ZM36.0384 58.095L19.6516 41.7082L11.1664 50.1935L27.5531 66.5802L36.0384 58.095ZM28.3136 71.645L35.0061 67.4065L28.5854 57.2687L21.893 61.5072L28.3136 71.645ZM27.9695 74.7489C27.0635 73.8429 27.2312 72.3306 28.3136 71.645L21.893 61.5072C14.3159 66.306 13.1423 76.8922 19.4842 83.2342L27.9695 74.7489ZM54.1486 100.928L27.9695 74.7489L19.4842 83.2342L45.6633 109.413L54.1486 100.928ZM57.2312 100.617C56.5335 101.672 55.0433 101.823 54.1486 100.928L45.6633 109.413C51.9262 115.676 62.3578 114.623 67.2418 107.234L57.2312 100.617ZM61.6179 93.9803L57.2312 100.617L67.2418 107.234L71.6285 100.597L61.6179 93.9803ZM61.6304 93.9612C61.6266 93.9671 61.6225 93.9733 61.6181 93.98L71.6283 100.598C71.6569 100.555 71.6854 100.511 71.7139 100.467L61.6304 93.9612ZM62.4295 101.457L79.2581 118.285L87.7434 109.8L70.9148 92.9714L62.4295 101.457ZM79.2581 118.285C85.7262 124.753 97.2066 123.505 101.042 114.237L89.9544 109.648C89.8412 109.922 89.7101 110.058 89.6101 110.136C89.4991 110.223 89.3492 110.294 89.1563 110.327C88.7759 110.39 88.2392 110.296 87.7434 109.8L79.2581 118.285ZM101.042 114.237C102.836 109.903 104.845 104.402 106.466 98.2586L94.8636 95.1967C93.4102 100.704 91.5942 105.686 89.9544 109.648L101.042 114.237ZM106.466 98.2586C108.069 92.1845 107.488 84.5468 106.401 77.7969L94.5533 79.7051C95.5947 86.171 95.7878 91.6944 94.8636 95.1967L106.466 98.2586Z" fill="white" mask="url(#path-3-inside-2_355_516)"/>
<rect x="37.1689" y="59.4698" width="45.6465" height="5.82721" transform="rotate(45 37.1689 59.4698)" fill="white"/>
<rect x="40.1839" y="51.4969" width="52.4449" height="2.91361" transform="rotate(45 40.1839 51.4969)" fill="white"/>
<circle cx="87.9879" cy="39.5543" r="14.996" transform="rotate(45 87.9879 39.5543)" stroke="white" stroke-width="4"/>
<circle cx="87.9879" cy="39.5543" r="6.75522" transform="rotate(45 87.9879 39.5543)" stroke="white" stroke-width="3"/>
<path d="M124.522 23.2094C119.061 23.6328 113.454 21.7559 109.277 17.5787C105.534 13.8353 103.638 8.9442 103.589 4.0381" stroke="white" stroke-width="3"/>
<rect x="22.1427" y="88.3951" width="5.82721" height="25.2513" rx="2.91361" transform="rotate(60 22.1427 88.3951)" fill="white"/>
<rect x="29.1472" y="95.8578" width="5.82721" height="31.0785" rx="2.91361" transform="rotate(45 29.1472 95.8578)" fill="white"/>
<rect x="35.6837" y="104.069" width="5.82721" height="25.2513" rx="2.91361" transform="rotate(30 35.6837 104.069)" fill="white"/>
</svg>
