<svg width="158" height="128" viewBox="0 0 158 128" fill="none" xmlns="http://www.w3.org/2000/svg">
<rect x="2.41509" y="2.41509" width="153.17" height="123.17" rx="4.02516" stroke="white" stroke-width="4.83019"/>
<rect y="20.1258" width="156.981" height="4.83019" fill="white"/>
<circle cx="144.101" cy="12.0754" r="4.83019" fill="white"/>
<circle cx="129.61" cy="12.0754" r="4.83019" fill="white"/>
<circle cx="115.119" cy="12.0754" r="4.83019" fill="white"/>
<rect x="85.0997" y="36.2264" width="6.44025" height="34.9543" transform="rotate(30 85.0997 36.2264)" fill="white"/>
<rect x="109.571" y="48.3019" width="6.44025" height="17.8837" transform="rotate(30 109.571 48.3019)" fill="white"/>
<rect x="115.08" y="51.2871" width="6.44025" height="17.8837" transform="rotate(135 115.08 51.2871)" fill="white"/>
<rect x="48.2441" y="57.3494" width="6.44025" height="17.8837" transform="rotate(-150 48.2441 57.3494)" fill="white"/>
<rect x="42.9506" y="54.3641" width="6.44025" height="17.8837" transform="rotate(-45 42.9506 54.3641)" fill="white"/>
<rect x="49.1069" y="82.9182" width="22.5409" height="4.83019" fill="white"/>
<rect x="64.4025" y="95.7988" width="22.5409" height="4.83019" fill="white"/>
<rect x="37.0314" y="95.7988" width="18.5157" height="4.83019" fill="white"/>
<rect x="25.761" y="108.679" width="45.8868" height="4.83019" fill="white"/>
<rect x="76.478" y="108.679" width="6.44025" height="4.83019" fill="white"/>
<rect x="33.0063" y="82.9182" width="9.66038" height="4.83019" fill="white"/>
</svg>
