<svg width="138" height="140" viewBox="0 0 138 140" fill="none" xmlns="http://www.w3.org/2000/svg">
<mask id="mask0_361_2530" style="mask-type:alpha" maskUnits="userSpaceOnUse" x="30" y="83" width="77" height="39">
<rect x="30.3" y="83.6001" width="76.5" height="37.8" fill="#D9D9D9"/>
</mask>
<g mask="url(#mask0_361_2530)">
<path fillRule="evenodd" clipRule="evenodd" d="M68.5 98.6364C59.5895 98.6364 52.3636 91.4105 52.3636 82.5C52.3636 73.5895 59.5895 66.3636 68.5 66.3636C77.4105 66.3636 84.6364 73.5895 84.6364 82.5C84.6364 91.4105 77.4105 98.6364 68.5 98.6364ZM102.254 78.0496L95.593 75.6792C94.7571 75.3823 93.8357 74.4528 93.5436 73.6137L92.4915 71.0642C92.1075 70.2638 92.1043 68.9535 92.4851 68.1515L95.5107 61.7874C95.8915 60.9854 95.7188 59.7897 95.1266 59.1281L91.8719 55.8734C91.2103 55.2812 90.0146 55.1085 89.2126 55.4893L82.8485 58.5149C82.0465 58.8957 80.7362 58.8925 79.9358 58.5085L77.3863 57.4564C76.5472 57.1659 75.6178 56.2429 75.3208 55.407L72.9504 48.746C72.6535 47.9101 71.6853 47.163 70.8027 47.0855C70.8027 47.0855 69.8216 47 68.5 47C67.1784 47 66.1973 47.0855 66.1973 47.0855C65.3131 47.163 64.3465 47.9101 64.0496 48.746L61.6792 55.407C61.3823 56.2429 60.4528 57.1659 59.6137 57.458L57.069 58.5085C56.2686 58.8925 54.9584 58.8957 54.1564 58.5149L47.7874 55.4893C46.9854 55.1085 45.7897 55.2812 45.1281 55.8734L41.8734 59.1281C41.2812 59.7897 41.1085 60.9854 41.4893 61.7874L44.5149 68.1515C44.8957 68.9535 44.8941 70.2638 44.5085 71.0642L43.4564 73.6137C43.1659 74.4528 42.2429 75.3823 41.407 75.6792L34.746 78.0496C33.9101 78.3465 33.163 79.3131 33.0855 80.1973C33.0855 80.1973 33 81.1784 33 82.5C33 83.8216 33.0855 84.801 33.0855 84.801C33.163 85.6853 33.9101 86.6519 34.746 86.9504L41.4103 89.3208C42.2461 89.6178 43.1691 90.5472 43.4612 91.3863L44.5133 93.9358C44.8973 94.7362 44.9006 96.0465 44.5197 96.8485L41.4942 103.213C41.1134 104.015 41.286 105.21 41.8782 105.872L45.1329 109.127C45.7945 109.719 46.9902 109.891 47.7922 109.511L54.1564 106.485C54.9584 106.104 56.2686 106.108 57.069 106.492L59.6185 107.544C60.456 107.834 61.3855 108.757 61.684 109.593L64.0544 116.257C64.3513 117.093 65.3179 117.84 66.2022 117.916C66.2022 117.916 67.1784 118 68.5 118C69.8216 118 70.8027 117.914 70.8027 117.914C71.6853 117.837 72.6535 117.09 72.9504 116.254L75.3208 109.59C75.6178 108.754 76.5472 107.831 77.3863 107.539L79.9358 106.487C80.7362 106.103 82.0465 106.099 82.8485 106.48L89.2126 109.506C90.0146 109.887 91.2103 109.714 91.8719 109.122L95.1266 105.867C95.7188 105.205 95.8915 104.01 95.5107 103.208L92.4851 96.8436C92.1043 96.0416 92.1075 94.7314 92.4915 93.9326L93.5436 91.3815C93.8341 90.544 94.7571 89.6145 95.593 89.316L102.257 86.9456C103.093 86.6487 103.84 85.6821 103.916 84.7978C103.916 84.7978 104 83.8216 104 82.5C104 81.1784 103.914 80.1973 103.914 80.1973C103.837 79.3131 103.09 78.3465 102.254 78.0496Z" stroke="white" stroke-width="4"/>
</g>
<path d="M82.5949 81H106V84H82.5949V81Z" fill="white"/>
<path d="M31 81H54.4029V84H31V81Z" fill="white"/>
<path d="M105 76.2998C105 56.4176 88.6809 40.2998 68.5501 40.2998C48.4193 40.2998 32.1001 56.4176 32.1001 76.2998" stroke="white" stroke-width="3.6"/>
<path d="M96.0001 76.2996C96.0001 73.9209 95.6874 71.614 95.1001 69.4165" stroke="white" stroke-width="2.7"/>
<path d="M41.1001 76.2998C41.1001 61.3881 53.3899 49.2998 68.5501 49.2998C77.9352 49.2998 86.2203 53.9325 91.1705 60.9998" stroke="white" stroke-width="2.7"/>
<path d="M32.55 74.5H42.45V77.2H32.55V74.5Z" fill="white"/>
<path d="M30.3 74.5H35.7V77.2H30.3V74.5Z" fill="white"/>
<path d="M45.7092 48.3999L52.7096 55.4003L51.4368 56.6731L44.4364 49.6727L45.7092 48.3999Z" fill="white"/>
<path d="M92.511 49.8896L86.1001 56.3005L87.3729 57.5733L93.7838 51.1624L92.511 49.8896Z" fill="white"/>
<path d="M67.2 50.1997L67.2 40.2997L69 40.2997L69 50.1997L67.2 50.1997Z" fill="white"/>
<path d="M94.6501 73.5996H104.517L104.55 76.2996H94.6501V73.5996Z" fill="white"/>
<path d="M101.4 73.5996H105.885L105.9 76.2996H101.4V73.5996Z" fill="white"/>
<circle cx="69" cy="78.0996" r="3.6" fill="white" stroke="white" stroke-width="1.8"/>
<path fillRule="evenodd" clipRule="evenodd" d="M75.6802 78.7677L96.8945 62.5975L70.9858 71.8065C73.8118 72.0508 75.9917 74.4604 75.9136 77.333C75.9 77.8317 75.8192 78.3127 75.6802 78.7677Z" fill="white"/>
<rect x="2.97144" y="14" width="132.057" height="112" rx="3.06438" stroke="white" stroke-width="5"/>
<rect x="0.471436" y="29.2964" width="136.193" height="3.34286" fill="white"/>
<rect x="8.82861" y="20.6289" width="27.5786" height="3.34286" rx="1.67143" fill="white"/>
<rect x="43.0928" y="20.6289" width="6.68571" height="3.34286" rx="1.67143" fill="white"/>
<circle cx="124.899" cy="22.6215" r="3.6" fill="white"/>
<circle cx="112.328" cy="22.6215" r="3.6" fill="white"/>
</svg>
